<?xml version="1.0" encoding="UTF-8"?>
<svg version="1.1" xmlns="http://www.w3.org/2000/svg" width="50" height="50">
<path d="M0 0 C1.485 0.99 1.485 0.99 3 2 C3.56847656 1.66097656 4.13695312 1.32195313 4.72265625 0.97265625 C7.35831471 -0.15303664 8.64446489 -0.0320397 11.4375 0.4375 C14.89542845 0.92822912 17.59453628 0.98868301 21 0 C19.79618552 2.49361571 18.54571278 4.68143083 17 7 C17.31506627 10.14221967 17.31506627 10.14221967 18 13 C18.66 13 19.32 13 20 13 C20 15 20 15 18 17.125 C17.34 17.74375 16.68 18.3625 16 19 C16.495 19.61875 16.99 20.2375 17.5 20.875 C19 23 19 23 19 25 C19.66 25 20.32 25 21 25 C21 25.99 21 26.98 21 28 C16.25 27.125 16.25 27.125 14 26 C12.948125 26.309375 11.89625 26.61875 10.8125 26.9375 C6.99108651 28.00248409 3.94295181 28.23657711 0 28 C-1.77449594 26.22550406 -1.13030072 23.64982739 -1.1328125 21.25 C-1.13410156 20.0846875 -1.13539062 18.919375 -1.13671875 17.71875 C-1.13285156 16.4915625 -1.12898437 15.264375 -1.125 14 C-1.12886719 12.7728125 -1.13273438 11.545625 -1.13671875 10.28125 C-1.13542969 9.1159375 -1.13414063 7.950625 -1.1328125 6.75 C-1.13168457 5.67234375 -1.13055664 4.5946875 -1.12939453 3.484375 C-1 1 -1 1 0 0 Z " fill="#1D2020" transform="translate(16,11)"/>
<path d="M0 0 C2 2 2 2 2 6 C2.66 6 3.32 6 4 6 C4 6.66 4 7.32 4 8 C2.37373596 9.38232443 0.7074998 10.71937515 -1 12 C-1.22162329 10.37675914 -1.42689803 8.751279 -1.625 7.125 C-1.74101562 6.22007813 -1.85703125 5.31515625 -1.9765625 4.3828125 C-1.98429687 3.59648437 -1.99203125 2.81015625 -2 2 C-1.34 1.34 -0.68 0.68 0 0 Z " fill="#030506" transform="translate(32,18)"/>
<path d="M0 0 C0.66 0 1.32 0 2 0 C2 2.64 2 5.28 2 8 C1.34 8 0.68 8 0 8 C-0.66 6.02 -1.32 4.04 -2 2 C-1.34 1.34 -0.68 0.68 0 0 Z " fill="#141617" transform="translate(29,21)"/>
<path d="M0 0 C0.66 0.33 1.32 0.66 2 1 C1.25 2.9375 1.25 2.9375 0 5 C-2.125 5.75 -2.125 5.75 -4 6 C-2.84826645 3.53199953 -1.95216435 1.95216435 0 0 Z " fill="#35383A" transform="translate(28,18)"/>
<path d="M0 0 C-1.39332574 3.36720387 -2.9789286 4.9859524 -6 7 C-6 4 -6 4 -4.125 1.8125 C-2 0 -2 0 0 0 Z " fill="#363839" transform="translate(37,11)"/>
<path d="M0 0 C1 4 1 4 1 4 Z " fill="#FFFFBF" transform="translate(37,21)"/>
<path d="" fill="#FFFFD4" transform="translate(0,0)"/>
<path d="" fill="#FFFFFF" transform="translate(0,0)"/>
</svg>
